<svg enable-background="new 0 0 922 278" viewBox="0 0 922 278" xmlns="http://www.w3.org/2000/svg"><path d="m218.8 138.6c1.9 1.7 3.6 3.7 4.9 6 2 3.5 3.2 7.6 3.2 12v35.9c0 8.9-4.8 16.6-12 20.7v-56.7c0-6.6-5.4-12-12-12h-83.8v-12h83.9c6.6 0 12-5.4 12-12v-35.9c-.1-6.5-5.4-11.8-12-11.8h-119.7v119.7h-12v-131.7h131.7c4.4 0 8.4 1.2 12 3.2 3.6 2.1 6.7 5.1 8.8 8.8 2 3.5 3.2 7.6 3.2 12v35.9c0 4.4-1.2 8.4-3.2 12-1.4 2.2-3 4.2-5 5.9z" fill="#005d8f"/><path d="m203 162.6v47.9c0 2.6-1.7 4.8-4 5.6-.6.2-1.3.3-2 .3h-48.2c-3.1 0-5.7-2.5-5.7-5.7v-24.6c0-3.1 2.5-5.7 5.7-5.7h30.2v12h-22.4c-.9 0-1.5.7-1.5 1.5v8.9c0 .9.7 1.5 1.5 1.5h33.1c.7 0 1.3-.6 1.3-1.3v-33.3c0-.7-.6-1.3-1.3-1.3h-57c-.9 0-1.5.7-1.5 1.5v46.4h-12v-54.2c0-3.1 2.5-5.7 5.7-5.7h72.1c3.3.2 6 2.9 6 6.2z" fill="#f06052"/><path d="m203 90.7v23.9c0 3.3-2.7 6-6 6h-77.8v-12h70.3c.9 0 1.5-.7 1.5-1.5v-8.9c0-.9-.7-1.5-1.5-1.5h-82.3v119.7h-35.9v-12h23.9v-119.7h101.8c3.3 0 6 2.7 6 6z" fill="#2787b7"/><g fill="#f06052"><path d="m294.7 181.9c3.8 0 6 2.3 6 6v5.2c0 3.6-2.2 6-6 6h-5.9v-17.1h5.9zm0 2.5h-2.9v12.3h2.9c2 0 3.1-1.1 3.1-3.6v-5c0-2.6-1-3.7-3.1-3.7z"/><path d="m386.7 181.9v17.1h-3v-17.1z"/><path d="m481.3 185.3-2.2.8c-.6-1.5-1.7-2.2-3.1-2.2-2.3 0-3.4 1.3-3.4 3.9v5.3c0 2.4 1.2 3.5 3.3 3.5 1.3 0 2.2-.4 2.9-1.5v-3h-2.2v-2h4.8v8.7h-2.4v-1.3c-1 1-2.3 1.5-3.8 1.5-3.4 0-5.5-2-5.5-5.9v-5.3c0-3.8 2-6.3 6.1-6.3 2.7 0 4.8 1.5 5.5 3.8z"/><path d="m567.2 181.9v17.1h-3v-17.1z"/><path d="m661.2 181.9v2.6h-4v14.6h-3v-14.6h-4v-2.6z"/><path d="m747.2 199.1h-3l5.4-17.1h3.3l5.4 17.1h-3l-1.1-4h-5.8zm1.7-6.2h4.6l-2.3-8.3z"/><path d="m844.1 181.9v14.6h6.3v2.6h-9.2v-17.1h2.9z"/></g><g fill="#005d8f"><path d="m288.9 79.2h41.9c6.8 0 11.9 1.6 15.1 4.7s4.8 7.8 4.8 14.2c0 4.2-.9 7.6-2.7 10.2s-4 4.4-6.7 5.5c5.7 1.5 9.5 5.3 11.5 11.3.7 2.2 1 4.7 1 7.5 0 6.8-1.6 11.9-4.8 15.1s-8.2 4.8-15.1 4.8h-45zm42.9 20.9c0-4.2-2.1-6.3-6.3-6.3h-17.8v14.7h17.8c4.2 0 6.3-2.1 6.3-6.3zm3.1 29.3c0-4.2-2.1-6.3-6.3-6.3h-20.9v14.6h20.9c4.2 0 6.3-2.1 6.3-6.3z"/><path d="m429.1 132.6c0 7.3-1.7 12.6-5 16-3.3 3.3-8.6 5-16 5h-26.1c-7.3 0-12.6-1.7-16-5-3.3-3.3-5-8.6-5-16v-33.5c0-7.3 1.7-12.6 5-16 3.3-3.3 8.6-5 16-5h26.2c7.3 0 12.6 1.7 16 5 3.3 3.3 5 8.6 5 16v33.5zm-18.9-33.5c0-4.2-2.1-6.3-6.3-6.3h-17.8c-4.2 0-6.3 2.1-6.3 6.3v33.5c0 4.2 2.1 6.3 6.3 6.3h17.9c4.2 0 6.3-2.1 6.3-6.3v-33.5z"/><path d="m505.5 132.6c0 7.3-1.7 12.6-5 16-3.3 3.3-8.6 5-16 5h-26.2c-7.3 0-12.6-1.7-16-5-3.3-3.3-5-8.6-5-16v-33.5c0-7.3 1.7-12.6 5-16 3.3-3.3 8.6-5 16-5h26.2c7.3 0 12.6 1.7 16 5 3.3 3.3 5 8.6 5 16zm-18.9-33.5c0-4.2-2.1-6.3-6.3-6.3h-17.8c-4.2 0-6.3 2.1-6.3 6.3v33.5c0 4.2 2.1 6.3 6.3 6.3h17.8c4.2 0 6.3-2.1 6.3-6.3z"/><path d="m551.5 152.4h-18.8v-58.6h-22v-14.6h62.8v14.6h-22z"/></g><path d="m580.8 79.2h44c7.3 0 12.6 1.7 16 5 3.3 3.3 5 8.6 5 16v10.5c0 7.3-1.7 12.6-5 16-3.3 3.3-8.6 5-16 5h-25.1v20.9h-18.8v-73.4zm46.1 20.9c0-4.2-2.1-6.3-6.3-6.3h-20.9v23h20.9c4.2 0 6.3-2.1 6.3-6.3z" fill="#2787b7"/><path d="m777.6 151.4c-15.6 1.4-28.5 2.1-38.7 2.1-6.8 0-11.9-1.6-15.1-4.8s-4.8-8.2-4.8-15.1v-33.5c0-7.3 1.7-12.6 5-16 3.3-3.3 8.6-5 16-5h37.7v14.6h-33.5c-4.2 0-6.3 2.1-6.3 6.3v33.5c0 1.6.5 2.9 1.4 3.8s2.1 1.4 3.6 1.4 3.1 0 4.8-.1c1.7 0 3.6-.1 5.4-.2 1.9-.1 3.8-.1 5.7-.2s4.4-.2 7.4-.4 6.8-.5 11.4-.7z" fill="#2787b7"/><path d="m804.8 152.4h-18.8v-73.2h18.8v28.8h9.4l16.3-28.8h19.9l-20.5 36.1 20.4 37.2h-19.9l-16.2-29.8h-9.4z" fill="#2787b7"/><path d="m690.2 79.2h-20.9l-27.8 73.2h20.4.4l7.8-23 8.5-25.1 2.1 5.9 1.9-.6 6.7 19.8 2.8 7.3-7.8-7.3-3.3 12.9-3.5-10.4-3.2 4.4-3-2.8-6.4 18.9h32.6 20.4z" fill="#2787b7"/></svg>