<svg enable-background="new 0 0 1200 630" viewBox="0 0 1200 630" xmlns="http://www.w3.org/2000/svg"><path d="m0 0h1200v630h-1200z" fill="#2787b7"/><g fill="#e5f4f9"><path d="m457.7 290.4c-4.2-3.1-9.5-4.2-14.6-2.9-4.9 1.3-8.9 1.8-12.7 1.8-28.3 0-51.4-23-51.4-50.3.1-.6.3-2.3.3-2.9.2-5.4-2.2-10.6-6.4-14s-9.8-4.6-15.1-3.2c-5 1.3-9.1 1.9-13 1.9-28.3 0-51.4-23-51.4-51.4 0-3.7.5-7.6 1.7-12.3 1.3-5.4 0-11.1-3.7-15.3-3.6-4.2-8.9-6.3-14.6-5.9-88.1 8.5-154.6 81.7-154.6 170.4 0 94.4 76.8 171.2 171.2 171.2s171.2-76.8 171.2-171.2c0-.8-.1-1.7-.1-2.7-.2-5.1-2.7-10-6.8-13.2zm-164.3 153c-75.5 0-136.9-61.4-136.9-136.9 0-63.7 42.9-117.5 102.8-132.7 2.2 45.2 39.7 81.3 85.5 81.3h1.7c7.9 38.7 41.9 68 82.8 68.5-8.5 67.4-66.2 119.8-135.9 119.8z"/><circle cx="229.4" cy="260.5" r="24"/><circle cx="213.4" cy="324.4" r="24"/><circle cx="341.3" cy="372.4" r="24"/><circle cx="261.4" cy="388.4" r="24"/><text font-family="&apos" font-size="180" transform="translate(509.7351 317.9697)">Cookie</text><text font-family="&apos" font-size="180" transform="translate(532.8752 475.0967)">Parser</text></g></svg>