<svg xmlns="http://www.w3.org/2000/svg" xmlns:xlink="http://www.w3.org/1999/xlink" id="Layer_1" x="0" y="0" version="1.1" viewBox="0 0 512 512" xml:space="preserve" enable-background="new 0 0 512 512"><style type="text/css">.st0{fill:#dff0f7}.st1{fill:#2887b7}</style><rect width="400" height="400" x="56" y="56" class="st0"/><g><path d="M399,241.7c-3.6-2.7-8.3-3.7-12.7-2.6c-4.3,1.1-7.8,1.6-11.1,1.6c-24.6,0-44.7-20-44.7-43.7 c0.1-0.5,0.2-2,0.3-2.5c0.2-4.7-1.9-9.2-5.6-12.2c-3.7-3-8.6-4-13.1-2.8c-4.4,1.1-8,1.7-11.3,1.7c-24.6,0-44.7-20-44.7-44.7 c0-3.2,0.5-6.6,1.5-10.7c1.2-4.7,0-9.7-3.2-13.3c-3.1-3.6-7.7-5.5-12.7-5.1C164.9,114.8,107,178.5,107,255.7 c0,82.1,66.8,149,149,149s149-66.8,149-149c0-0.7,0-1.4-0.1-2.4C404.7,248.7,402.6,244.5,399,241.7z M256,374.8 c-65.7,0-119.2-53.5-119.2-119.2c0-55.5,37.4-102.2,89.5-115.4c2,39.4,34.6,70.8,74.4,70.8c0.5,0,1,0,1.5,0 c6.9,33.7,36.5,59.1,72,59.6C366.9,329.3,316.7,374.8,256,374.8z" class="st1"/><circle cx="263.4" cy="248.2" r="22.3" class="st1"/><circle cx="203.9" cy="203.5" r="22.3" class="st1"/><circle cx="189" cy="263.1" r="22.3" class="st1"/><circle cx="308.1" cy="307.8" r="22.3" class="st1"/><circle cx="233.7" cy="322.7" r="22.3" class="st1"/></g></svg>